<?xml version="1.0" encoding="iso-8859-1"?>
<!-- Generator: Adobe Illustrator 19.0.0, SVG Export Plug-In . SVG Version: 6.00 Build 0)  -->
<svg version="1.1" id="Capa_1" xmlns="http://www.w3.org/2000/svg" xmlns:xlink="http://www.w3.org/1999/xlink" x="0px" y="0px"
	 viewBox="0 0 512 512" style="enable-background:new 0 0 512 512;" xml:space="preserve">
<path style="fill:#45A2FF;" d="M61.332,405.236h31.644l5.336-15.8c4.685-3.363,8.051-5.779,12.736-9.141h21.468
	c4.685,3.363,8.051,5.779,12.736,9.141l5.336,15.8h15.588c6.27,6.27,9.786,9.786,16.056,16.056v23.789H45.276v-23.789
	C51.547,415.022,55.062,411.506,61.332,405.236z"/>
<g>
	<path style="fill:#2488FF;" d="M79.332,405.236h-18c-6.27,6.27-9.786,9.786-16.056,16.056v23.789h18v-23.789
		C69.547,415.022,73.062,411.506,79.332,405.236z"/>
	<path style="fill:#2488FF;" d="M116.312,389.436c4.685-3.363,8.051-5.779,12.736-9.142h-18c-4.685,3.363-8.051,5.779-12.736,9.142
		l-5.336,15.8h18L116.312,389.436z"/>
</g>
<polygon style="fill:#FFC477;" points="7.5,7.5 7.5,71.039 153.851,90.637 243.35,130.837 284.015,90.172 312.299,118.457 
	282.385,148.37 365.112,185.529 368.591,225.977 419.085,276.471 390.799,304.755 373.915,287.87 377.111,325.027 399.61,376.045 
	377.111,425.542 384.611,455.541 384.611,504.5 504.5,504.5 504.5,7.5 "/>
<g>
	<polygon style="fill:#FFA733;" points="196.68,90.637 50.329,71.039 50.329,7.5 7.5,7.5 7.5,71.039 153.851,90.637 243.35,130.837 
		256.625,117.562 	"/>
	<polygon style="fill:#FFA733;" points="419.94,425.542 442.439,376.045 419.94,325.027 416.744,287.87 433.629,304.755 
		461.914,276.471 411.42,225.977 407.941,185.529 325.214,148.37 355.128,118.457 326.844,90.172 305.429,111.587 312.299,118.457 
		282.385,148.37 365.112,185.529 368.591,225.977 419.085,276.471 390.799,304.755 373.915,287.87 377.111,325.027 399.61,376.045 
		377.111,425.542 384.611,455.541 384.611,504.5 427.44,504.5 427.44,455.541 	"/>
</g>
<rect x="288.856" y="324.958" transform="matrix(0.7071 -0.7071 0.7071 0.7071 -193.0225 335.817)" style="fill:#FF0C38;" width="40" height="151.899"/>
<path style="fill:#FF456D;" d="M347.167,201.558l-60.77,60.77L228.91,204.84l86.384-86.384L287.01,90.172l-86.385,86.384
	l-0.035-0.035l-60.564,60.564c0,7.925,0,12.369,0,20.294l75.706,75.706l0,0l28.262,28.261l28.255-28.268l0.029-0.017l0.003-0.015
	l74.887-74.919l46.627,46.628l28.285-28.283L347.167,201.558z"/>
<g>
	
		<rect x="297.536" y="222.115" transform="matrix(0.7071 -0.7071 0.7071 0.7071 -67.1531 301.7606)" style="fill:#FF0C38;" width="66.289" height="19.652"/>
	
		<rect x="364.305" y="233.489" transform="matrix(-0.707 0.7073 -0.7073 -0.707 830.4078 198.254)" style="fill:#FF0C38;" width="19.654" height="75.345"/>
	<polygon style="fill:#FF0C38;" points="243.524,333.085 243.524,333.084 167.818,257.378 167.818,237.084 228.382,176.52 
		228.418,176.556 300.906,104.068 287.01,90.172 200.625,176.556 200.59,176.52 140.026,237.084 140.026,257.378 215.732,333.084 
		215.731,333.085 243.993,361.345 257.886,347.447 	"/>
</g>
<circle style="fill:#FFC477;" cx="121.44" cy="171.08" r="57.693"/>
<path style="fill:#FFA733;" d="M115.009,211.876c-22.53-22.53-22.53-59.059,0-81.589c6.841-6.841,14.976-11.592,23.615-14.278
	c-19.811-6.161-42.285-1.411-57.974,14.278c-22.53,22.53-22.53,59.059,0,81.589c15.689,15.689,38.163,20.44,57.974,14.278
	C129.986,223.468,121.85,218.717,115.009,211.876z"/>
<path style="fill:#FF0C38;" d="M167.817,96.91h-8.68v30.515c1.057,0.915,2.098,1.858,3.102,2.862
	c22.528,22.528,22.53,59.051,0.007,81.582l35.348-35.348l0.035,0.035l1.507-1.507v-64.07L167.817,96.91z"/>
<g>
	<path style="fill:#1D1D1F;" d="M152.876,396.264l-4.386-12.985l-16.657-11.956h-26.292l-16.657,11.956l-4.386,12.985H55.131
		l-20.449,20.448v34.397h151.955v-34.396l-20.449-20.449H152.876z M171.637,436.109H49.682v-13.184l11.663-11.662h33.921
		l6.286-18.614l8.815-6.327h16.641l8.815,6.327l6.286,18.614h17.865l11.662,11.662L171.637,436.109L171.637,436.109z"/>
	<rect x="229.67" y="29.939" style="fill:#1D1D1F;" width="74" height="15"/>
	<rect x="116.47" y="35.444" style="fill:#1D1D1F;" width="14.587" height="15"/>
	<rect x="91.47" y="35.444" style="fill:#1D1D1F;" width="15" height="15"/>
	<rect x="66.47" y="35.444" style="fill:#1D1D1F;" width="15" height="15"/>
	<rect x="402" y="49.647" style="fill:#1D1D1F;" width="15" height="15"/>
	<rect x="327" y="49.647" style="fill:#1D1D1F;" width="15" height="15"/>
	<rect x="352" y="49.647" style="fill:#1D1D1F;" width="15" height="15"/>
	<rect x="377" y="49.647" style="fill:#1D1D1F;" width="15" height="15"/>
	<polygon style="fill:#1D1D1F;" points="304.976,150.295 298.829,163.979 358.017,190.563 358.456,195.674 373.401,194.389 
		372.883,188.364 412.784,148.464 402.177,137.856 363.466,176.567 	"/>
	<polygon style="fill:#1D1D1F;" points="0,0 0,77.602 151.773,97.926 220.759,128.912 226.905,115.229 166.844,88.251 
		200.015,55.079 189.409,44.472 151.17,82.711 15,64.477 15,15 497,15 497,497 438.884,497 438.884,433.188 423.884,433.188 
		423.884,497 392.11,497 392.11,454.617 385.022,426.263 404.439,383.545 450.553,383.545 450.553,368.545 404.499,368.545 
		384.477,323.142 384.049,318.174 369.104,319.459 369.745,326.912 391.393,375.999 369.2,424.821 377.11,456.464 377.11,512 
		512,512 512,0 	"/>
	<path style="fill:#1D1D1F;" d="M104.062,188.463L93.457,199.07c7.45,7.449,17.634,11.587,28.063,11.587
		c1.881,0,3.771-0.135,5.654-0.409l-2.162-14.844C117.241,196.539,109.607,194.006,104.062,188.463z"/>
	<path style="fill:#1D1D1F;" d="M348.407,458.149l-96.804-96.805l17.674-17.682l82.631,82.63l10.606-10.607l-82.633-82.632
		l64.292-64.32l46.626,46.627l38.892-38.89l-85.519-85.52l-60.77,60.77l-46.881-46.881l78.883-78.884h40.929v-15h-40.928
		l-31.389-31.391l-77.379,77.342V132.9h-15v38.969l-5.294,5.293c0.186-2.004,0.294-4.031,0.294-6.083
		c0-18.412-7.685-35.053-20-46.919v-9.226h-12.116c-9.704-5.739-21.009-9.047-33.076-9.047c-35.947,0-65.193,29.245-65.193,65.192
		s29.246,65.192,65.193,65.192c2.74,0,5.434-0.19,8.086-0.52v24.73l218.876,218.878l20.417-20.416l-10.606-10.607L348.407,458.149z
		 M71.252,171.081c0-27.676,22.517-50.192,50.193-50.192s50.192,22.517,50.192,50.192s-22.516,50.192-50.192,50.192
		S71.252,198.757,71.252,171.081z M144.531,254.271v-14.08l139.483-139.414l17.678,17.68l-86.383,86.384l68.094,68.094l60.77-60.77
		l64.305,64.307L390.8,294.148l-46.628-46.629l-103.18,103.214L144.531,254.271z"/>
</g>
<g>
	<path style="fill:#FFFFFF;" d="M458.053,317.375h-15V209.238h15V317.375z M458.053,199.238h-15v-15h15V199.238z M458.053,174.238
		h-15v-15h15V174.238z"/>
	<path style="fill:#FFFFFF;" d="M159.654,181.433l-14.48-3.912c0.565-2.095,0.853-4.267,0.853-6.457
		c0-6.555-2.557-12.721-7.2-17.363l-0.219-0.217l10.47-10.742l0.356,0.352c7.476,7.476,11.593,17.409,11.593,27.971
		C161.026,174.574,160.564,178.063,159.654,181.433z M104.062,153.7l-10.605-10.607c4.436-4.436,9.69-7.671,15.616-9.618
		l4.681,14.252C110.082,148.933,106.821,150.942,104.062,153.7z M132.387,149.06c-3.369-1.675-7.152-2.56-10.942-2.56l-0.201,0.001
		v-15l0.201-0.001c6.094,0,12.187,1.428,17.619,4.128L132.387,149.06z"/>
	<path style="fill:#FFFFFF;" d="M226.363,320.467l-23.812-23.812l10.606-10.607l23.812,23.812L226.363,320.467z M195.481,289.584
		l-10.606-10.606l10.606-10.607l10.606,10.606L195.481,289.584z M177.803,271.906L167.197,261.3l10.606-10.607l10.606,10.606
		L177.803,271.906z"/>
</g>
<g>
</g>
<g>
</g>
<g>
</g>
<g>
</g>
<g>
</g>
<g>
</g>
<g>
</g>
<g>
</g>
<g>
</g>
<g>
</g>
<g>
</g>
<g>
</g>
<g>
</g>
<g>
</g>
<g>
</g>
</svg>
